# xmcd CD database file
# Copyright (C) 1993-1996 Ti Kan
#
# Track frame offsets:
# 150
# 10502
# 22977
# 31950
# 41255
# 54255
# 64525
# 74287
# 90392
# 101150
# 115622
# 127145
# 129930
# 139200
# 153347
# 166350
# 178012
# 189577
# 203490
# 216235
# 226487
# 239617
# 253200
# 265725
# 277732
# 289872
# 305697
# 320680
# 331062
#
# Disc length: 4453 seconds
#
# Revision: 0
# Processed by: cddbd v1.4b41PL1 Copyright (c) Steve Scherf et al.
# Submitted via: inCDius 1.1b5
#
DISCID=9511631d
DTITLE=Johnny Duncan - Last Train To San Fernando - Disc 4
DYEAR=1900
DGENRE=
TTITLE0=Last Train To San Fernando
TTITLE1=Little Things
TTITLE2=I Fought The Law
TTITLE3=Out Of Business
TTITLE4=I Wonder Where You Are Tonight
TTITLE5=Someone Stole My Steel Guitar
TTITLE6=Joe And Mabel's 12th Street Bar And Grill
TTITLE7=Margie's At The Lincoln Park Inn
TTITLE8=Footprints In The Snow
TTITLE9=Kaw Liga
TTITLE10=I Ain't Buyin'
TTITLE11=Mustang Prang
TTITLE12=Life Can Be Beautiful
TTITLE13=Hello Heartache
TTITLE14=If It Feels Good, Do It
TTITLE15=The Wild Side Of Life
TTITLE16=Just For What I Am
TTITLE17=Salty Dog Blues
TTITLE18=Just A Little Lovin'
TTITLE19=Footprints In The Snow
TTITLE20=Blue Blue Heartache
TTITLE21=Someone To Give My Love To
TTITLE22=Hey Good Lookin' (1 Tribute To Hank Williams)
TTITLE23=I Can't Help It (2 Tribute To Hank Williams)
TTITLE24=Jambalaya (3 Tribute To Hank Williams)
TTITLE25=Smoke! Smoke! Smoke! (That Cigarette)
TTITLE26=Tom Dooley
TTITLE27=Last Train To San Fernando
TTITLE28=Mustang Prang (Revisited)
EXTD=
EXTT0=
EXTT1=
EXTT2=
EXTT3=
EXTT4=
EXTT5=
EXTT6=
EXTT7=
EXTT8=
EXTT9=
EXTT10=
EXTT11=
EXTT12=
EXTT13=
EXTT14=
EXTT15=
EXTT16=
EXTT17=
EXTT18=
EXTT19=
EXTT20=
EXTT21=
EXTT22=
EXTT23=
EXTT24=
EXTT25=
EXTT26=
EXTT27=
EXTT28=
PLAYORDER=
